<svg width="1131" height="1078" viewBox="0 0 1131 1078" fill="none" xmlns="http://www.w3.org/2000/svg">
<rect width="1078" height="1078" rx="280" fill="url(#paint0_linear_20_216)"/>
<g filter="url(#filter0_dd_20_216)">
<path d="M338.303 798.448C310.239 798.448 284.733 791.184 261.786 776.656C238.838 762.129 220.514 740.337 206.812 711.282C193.109 682.227 186.258 646.155 186.258 603.068C186.258 558.329 193.357 521.515 207.554 492.625C221.752 463.734 240.324 442.356 263.271 428.488C286.383 414.621 311.229 407.687 337.808 407.687C357.784 407.687 374.87 411.154 389.067 418.088C403.265 424.856 414.986 433.606 424.231 444.337C433.476 455.067 440.492 466.211 445.28 477.767H447.756V285.853H568.847V793H448.994V731.34H445.28C440.162 743.061 432.898 754.04 423.488 764.275C414.078 774.51 402.274 782.765 388.077 789.038C374.045 795.311 357.453 798.448 338.303 798.448ZM380.4 704.101C395.093 704.101 407.64 699.974 418.04 691.719C428.441 683.3 436.447 671.496 442.06 656.308C447.673 641.12 450.48 623.291 450.48 602.82C450.48 582.019 447.673 564.107 442.06 549.084C436.612 534.061 428.606 522.505 418.04 514.416C407.64 506.327 395.093 502.282 380.4 502.282C365.378 502.282 352.666 506.409 342.265 514.664C331.865 522.918 323.941 534.557 318.493 549.579C313.21 564.602 310.569 582.349 310.569 602.82C310.569 623.291 313.293 641.12 318.74 656.308C324.188 671.496 332.03 683.3 342.265 691.719C352.666 699.974 365.378 704.101 380.4 704.101ZM650.815 412.64L713.466 537.941L778.345 412.64H900.426L794.193 602.82L904.388 793H783.297L713.466 666.709L645.367 793H522.543L632.986 602.82L527.99 412.64H650.815Z" fill="white"/>
</g>
<defs>
<filter id="filter0_dd_20_216" x="12.2578" y="89.8532" width="1118.13" height="912.595" filterUnits="userSpaceOnUse" color-interpolation-filters="sRGB">
<feFlood flood-opacity="0" result="BackgroundImageFix"/>
<feColorMatrix in="SourceAlpha" type="matrix" values="0 0 0 0 0 0 0 0 0 0 0 0 0 0 0 0 0 0 127 0" result="hardAlpha"/>
<feOffset dy="46"/>
<feGaussianBlur stdDeviation="50"/>
<feComposite in2="hardAlpha" operator="out"/>
<feColorMatrix type="matrix" values="0 0 0 0 0 0 0 0 0 0 0 0 0 0 0 0 0 0 0.31 0"/>
<feBlend mode="normal" in2="BackgroundImageFix" result="effect1_dropShadow_20_216"/>
<feColorMatrix in="SourceAlpha" type="matrix" values="0 0 0 0 0 0 0 0 0 0 0 0 0 0 0 0 0 0 127 0" result="hardAlpha"/>
<feOffset dx="26" dy="4"/>
<feGaussianBlur stdDeviation="100"/>
<feComposite in2="hardAlpha" operator="out"/>
<feColorMatrix type="matrix" values="0 0 0 0 0 0 0 0 0 0 0 0 0 0 0 0 0 0 0.65 0"/>
<feBlend mode="normal" in2="effect1_dropShadow_20_216" result="effect2_dropShadow_20_216"/>
<feBlend mode="normal" in="SourceGraphic" in2="effect2_dropShadow_20_216" result="shape"/>
</filter>
<linearGradient id="paint0_linear_20_216" x1="539" y1="0" x2="539" y2="1078" gradientUnits="userSpaceOnUse">
<stop stop-color="#86A9EE"/>
<stop offset="0.739583" stop-color="#EE59A9"/>
</linearGradient>
</defs>
</svg>
