<svg width="1280" height="832" viewBox="0 0 1280 832" fill="none" xmlns="http://www.w3.org/2000/svg">
<g clip-path="url(#clip0_207_2)">
<rect width="1280" height="832" fill="transparent"/>
<line x1="112.5" y1="2.18557e-08" x2="112.5" y2="832" stroke="#888888" stroke-opacity="0.099999"/>
<line x1="263.5" y1="2.18557e-08" x2="263.5" y2="832" stroke="#888888" stroke-opacity="0.099999"/>
<line x1="414.5" y1="2.18557e-08" x2="414.5" y2="832" stroke="#888888" stroke-opacity="0.099999"/>
<line x1="565.5" y1="2.18557e-08" x2="565.5" y2="832" stroke="#888888" stroke-opacity="0.099999"/>
<line x1="716.5" y1="2.18557e-08" x2="716.5" y2="832" stroke="#888888" stroke-opacity="0.099999"/>
<line x1="867.5" y1="2.18557e-08" x2="867.5" y2="832" stroke="#888888" stroke-opacity="0.099999"/>
<line x1="1018.5" y1="2.18557e-08" x2="1018.5" y2="832" stroke="#888888" stroke-opacity="0.099999"/>
<line x1="1169.5" y1="2.18557e-08" x2="1169.5" y2="832" stroke="#888888" stroke-opacity="0.099999"/>
<line x1="-14" y1="813.5" x2="1294" y2="813.5" stroke="#888888" stroke-opacity="0.099999"/>
<line x1="-14" y1="662.5" x2="1294" y2="662.5" stroke="#888888" stroke-opacity="0.099999"/>
<line x1="-14" y1="511.5" x2="1294" y2="511.5" stroke="#888888" stroke-opacity="0.099999"/>
<line x1="-14" y1="360.5" x2="1294" y2="360.5" stroke="#888888" stroke-opacity="0.099999"/>
<line x1="-14" y1="209.5" x2="1294" y2="209.5" stroke="#888888" stroke-opacity="0.099999"/>
<line x1="-14" y1="58.4999" x2="1294" y2="58.5" stroke="#888888" stroke-opacity="0.099999"/>
</g>
<defs>
<clipPath id="clip0_207_2">
<rect width="1280" height="832" fill="white"/>
</clipPath>
</defs>
</svg>
